<svg width="64" height="64" viewBox="0 0 64 64" fill="none" xmlns="http://www.w3.org/2000/svg">
<path d="M35.5197 38.8909H42.2487L43.3057 32.0559H35.5197V28.3199C35.5197 25.4809 36.4477 22.9619 39.1037 22.9619H43.3717V16.9959C42.6217 16.8949 41.0367 16.6729 38.0397 16.6729C31.7817 16.6729 28.1137 19.9779 28.1137 27.5069V32.0549H21.6807V38.8899H28.1137V56.6779C29.3847 56.8689 30.6757 56.9999 31.9997 56.9999C33.1967 56.9999 34.3657 56.8909 35.5197 56.7339V38.8909Z" fill="white"/>
<path d="M32 7C25.3696 7 19.0107 9.63392 14.3223 14.3223C9.63392 19.0107 7 25.3696 7 32C7 38.6304 9.63392 44.9893 14.3223 49.6777C19.0107 54.3661 25.3696 57 32 57C38.6304 57 44.9893 54.3661 49.6777 49.6777C54.3661 44.9893 57 38.6304 57 32C57 25.3696 54.3661 19.0107 49.6777 14.3223C44.9893 9.63392 38.6304 7 32 7Z" stroke="white" stroke-width="4" stroke-miterlimit="10"/>
</svg>
