<svg width="64" height="64" viewBox="0 0 64 64" fill="none" xmlns="http://www.w3.org/2000/svg">
<path d="M22.0068 35.25L39.0218 25L27.0108 37.5L37.5458 45.775C39.4328 46.605 40.1198 44.876 40.1198 44.876L44.9448 20.375C44.9448 20.375 45.0268 19.75 44.9898 19.625C44.6458 18.457 42.7628 19.301 42.7628 19.301L15.2058 30.188C15.2058 30.188 13.9018 30.637 14.0048 31.466C14.1078 32.296 15.1718 32.675 15.1718 32.675L22.0088 35.25" fill="white"/>
<path d="M45.9494 19.3428C45.7194 18.5588 45.0904 18.0738 44.2224 18.0128C44.0474 17.9998 43.0634 18.0398 42.3994 18.3778L14.8814 29.2428C13.9964 29.5468 13.0204 30.2658 13.0004 31.3298C12.9984 31.4138 13.0034 31.5008 13.0144 31.5898C13.1874 32.9898 14.6684 33.5578 14.8214 33.6108L21.1984 36.0128C21.6884 37.5878 23.3064 42.7868 23.6544 43.8988C23.8884 44.6428 24.2744 45.6078 24.9814 45.8718C25.1854 45.9558 25.4024 45.9998 25.6284 45.9998C26.2424 45.9998 26.6424 45.6878 26.7914 45.5528L30.6944 41.6628L36.9294 46.5598C36.9944 46.6118 37.0674 46.6558 37.1444 46.6888C37.6614 46.9168 38.1204 46.9988 38.5114 46.9988C38.9204 46.9988 39.2564 46.9098 39.5094 46.8058C40.5764 46.3678 41.0034 45.3588 41.0494 45.2448C41.0714 45.1878 41.0894 45.1288 41.1014 45.0688L45.9364 20.5048C46.0474 19.6688 45.9874 19.4718 45.9494 19.3428ZM23.1954 35.7008L33.0674 29.7538L26.2924 36.8068C26.1724 36.9308 26.1044 37.0858 26.0634 37.2488C26.0604 37.2608 25.0574 41.6788 25.0574 41.6788L23.1954 35.7008ZM43.9634 20.1878L39.1644 44.5578C39.1074 44.6558 38.9644 44.8688 38.7514 44.9558C38.5724 45.0288 38.3394 45.0108 38.0574 44.9028L28.4984 37.3958L39.7434 25.6918C40.0914 25.3308 40.1174 24.7668 39.8044 24.3758C39.4924 23.9848 38.9374 23.8848 38.5074 24.1438L21.9064 34.1438L15.5174 31.7378C15.3214 31.6628 15.1194 31.5168 15.0364 31.4148C15.1454 31.3188 15.3654 31.1938 15.5734 31.1188L43.1314 20.2298C43.1484 20.2238 43.1644 20.2158 43.1814 20.2088C43.4324 20.0988 43.7714 20.0168 43.9844 20.0038C43.9744 20.1038 43.9634 20.1878 43.9634 20.1878Z" fill="white"/>
<path fill-rule="evenodd" clip-rule="evenodd" d="M39.1644 44.5578L43.9634 20.1878C43.9634 20.1878 43.9744 20.1038 43.9844 20.0038C43.7714 20.0168 43.4324 20.0988 43.1814 20.2088C43.1751 20.2114 43.1689 20.2141 43.1628 20.2169C43.1524 20.2215 43.1421 20.226 43.1314 20.2298L15.5734 31.1188C15.3654 31.1938 15.1454 31.3188 15.0364 31.4148C15.1194 31.5168 15.3214 31.6628 15.5174 31.7378L21.9064 34.1438L38.5074 24.1438C38.9374 23.8848 39.4924 23.9848 39.8044 24.3758C40.1174 24.7668 40.0914 25.3308 39.7434 25.6918L28.4984 37.3958L38.0574 44.9028C38.3394 45.0108 38.5724 45.0288 38.7514 44.9558C38.9644 44.8688 39.1074 44.6558 39.1644 44.5578Z" fill="white"/>
<path d="M32 58C17.663 58 6 46.336 6 32C6 17.664 17.663 6 32 6C46.337 6 58 17.664 58 32C58 46.336 46.337 58 32 58ZM32 8C18.767 8 8 18.767 8 32C8 45.233 18.767 56 32 56C45.233 56 56 45.233 56 32C56 18.767 45.233 8 32 8Z" fill="white"/>
</svg>
